<svg width="390" height="417" viewBox="0 0 390 417" fill="none" xmlns="http://www.w3.org/2000/svg">
<rect width="390" height="376" fill="#222D90"/>
<rect width="390" height="376" fill="#222D90"/>
<circle cx="195" cy="176" r="240.5" stroke="white" stroke-opacity="0.01"/>
<circle cx="195" cy="176" r="210.5" stroke="white" stroke-opacity="0.02"/>
<circle cx="195" cy="176" r="180.5" stroke="white" stroke-opacity="0.03"/>
<circle cx="195" cy="176" r="150.5" stroke="white" stroke-opacity="0.05"/>
<circle cx="195" cy="176" r="120.5" stroke="white" stroke-opacity="0.1"/>
<circle cx="195" cy="176" r="90.5" stroke="white" stroke-opacity="0.15"/>
<path fill-rule="evenodd" clip-rule="evenodd" d="M191 119.141C181.717 119.793 172.713 122.712 164.788 127.666C155.728 133.329 148.442 141.424 143.761 151.028C139.081 160.632 137.193 171.358 138.315 181.983C139.296 191.278 142.545 200.168 147.75 207.882L195 176V119.141H191ZM191 115.131C180.966 115.791 171.229 118.922 162.667 124.274C152.972 130.334 145.175 138.997 140.166 149.275C135.157 159.553 133.137 171.032 134.337 182.403C135.397 192.444 138.93 202.043 144.592 210.352C145.339 211.448 146.123 212.521 146.943 213.57C146.946 213.575 146.95 213.579 146.953 213.583L150 211L147.75 207.882L195 176V119.141V115C193.663 115 192.329 115.044 191 115.131Z" fill="white" fill-opacity="0.6"/>
<circle cx="195" cy="176" r="59" stroke="white" stroke-opacity="0.2" stroke-width="4"/>
<path d="M105.921 260.242V258.636H115.489V260.242H111.632V271H109.773V260.242H105.921ZM119.811 271.187C118.897 271.187 118.11 270.992 117.45 270.602C116.794 270.207 116.287 269.654 115.929 268.941C115.575 268.225 115.398 267.386 115.398 266.424C115.398 265.474 115.575 264.637 115.929 263.913C116.287 263.188 116.786 262.623 117.426 262.216C118.07 261.81 118.823 261.607 119.684 261.607C120.207 261.607 120.714 261.693 121.205 261.866C121.696 262.039 122.137 262.311 122.527 262.681C122.918 263.051 123.226 263.532 123.451 264.124C123.676 264.712 123.789 265.426 123.789 266.267V266.907H116.418V265.555H122.02C122.02 265.08 121.924 264.659 121.73 264.293C121.537 263.923 121.266 263.631 120.916 263.418C120.569 263.204 120.163 263.098 119.696 263.098C119.189 263.098 118.746 263.222 118.368 263.472C117.994 263.717 117.704 264.039 117.499 264.438C117.297 264.832 117.197 265.261 117.197 265.724V266.78C117.197 267.4 117.305 267.927 117.523 268.362C117.744 268.797 118.052 269.129 118.446 269.358C118.841 269.583 119.302 269.696 119.829 269.696C120.171 269.696 120.483 269.648 120.765 269.551C121.046 269.451 121.29 269.302 121.495 269.104C121.7 268.907 121.857 268.664 121.966 268.374L123.674 268.682C123.538 269.185 123.292 269.626 122.938 270.004C122.588 270.378 122.147 270.67 121.616 270.879C121.089 271.085 120.487 271.187 119.811 271.187ZM132.44 263.991L130.804 264.281C130.736 264.072 130.627 263.872 130.478 263.683C130.333 263.494 130.136 263.339 129.887 263.218C129.637 263.098 129.325 263.037 128.951 263.037C128.44 263.037 128.013 263.152 127.671 263.381C127.329 263.607 127.158 263.899 127.158 264.257C127.158 264.567 127.273 264.816 127.502 265.005C127.732 265.194 128.102 265.349 128.613 265.47L130.086 265.808C130.939 266.005 131.575 266.309 131.994 266.72C132.412 267.13 132.621 267.664 132.621 268.32C132.621 268.875 132.46 269.37 132.139 269.805C131.821 270.235 131.376 270.573 130.804 270.819C130.237 271.064 129.579 271.187 128.83 271.187C127.792 271.187 126.945 270.966 126.289 270.523C125.633 270.076 125.23 269.442 125.081 268.621L126.826 268.356C126.935 268.811 127.158 269.155 127.496 269.388C127.834 269.618 128.275 269.732 128.818 269.732C129.41 269.732 129.883 269.609 130.237 269.364C130.591 269.114 130.768 268.811 130.768 268.452C130.768 268.163 130.659 267.919 130.442 267.722C130.229 267.525 129.901 267.376 129.458 267.275L127.889 266.931C127.023 266.734 126.383 266.42 125.969 265.989C125.558 265.559 125.353 265.013 125.353 264.353C125.353 263.806 125.506 263.327 125.812 262.917C126.118 262.506 126.54 262.186 127.08 261.957C127.619 261.723 128.237 261.607 128.933 261.607C129.935 261.607 130.724 261.824 131.299 262.259C131.875 262.689 132.255 263.267 132.44 263.991ZM138.635 261.727V263.176H133.57V261.727H138.635ZM134.928 259.506H136.733V268.277C136.733 268.627 136.785 268.891 136.89 269.068C136.995 269.241 137.129 269.36 137.294 269.424C137.463 269.485 137.647 269.515 137.844 269.515C137.989 269.515 138.115 269.505 138.224 269.485C138.333 269.465 138.417 269.449 138.478 269.436L138.804 270.928C138.699 270.968 138.55 271.008 138.357 271.048C138.164 271.093 137.922 271.117 137.632 271.121C137.158 271.129 136.715 271.044 136.304 270.867C135.894 270.69 135.562 270.416 135.308 270.046C135.055 269.676 134.928 269.211 134.928 268.652V259.506ZM147.13 263.991L145.494 264.281C145.426 264.072 145.317 263.872 145.168 263.683C145.023 263.494 144.826 263.339 144.577 263.218C144.327 263.098 144.015 263.037 143.641 263.037C143.13 263.037 142.703 263.152 142.361 263.381C142.019 263.607 141.848 263.899 141.848 264.257C141.848 264.567 141.963 264.816 142.192 265.005C142.422 265.194 142.792 265.349 143.303 265.47L144.776 265.808C145.629 266.005 146.265 266.309 146.684 266.72C147.102 267.13 147.311 267.664 147.311 268.32C147.311 268.875 147.151 269.37 146.829 269.805C146.511 270.235 146.066 270.573 145.494 270.819C144.927 271.064 144.269 271.187 143.52 271.187C142.482 271.187 141.635 270.966 140.979 270.523C140.323 270.076 139.92 269.442 139.771 268.621L141.516 268.356C141.625 268.811 141.848 269.155 142.186 269.388C142.524 269.618 142.965 269.732 143.508 269.732C144.1 269.732 144.573 269.609 144.927 269.364C145.281 269.114 145.458 268.811 145.458 268.452C145.458 268.163 145.349 267.919 145.132 267.722C144.919 267.525 144.591 267.376 144.148 267.275L142.579 266.931C141.713 266.734 141.073 266.42 140.659 265.989C140.248 265.559 140.043 265.013 140.043 264.353C140.043 263.806 140.196 263.327 140.502 262.917C140.808 262.506 141.23 262.186 141.77 261.957C142.309 261.723 142.927 261.607 143.623 261.607C144.625 261.607 145.414 261.824 145.989 262.259C146.565 262.689 146.945 263.267 147.13 263.991ZM157.101 271.187C156.204 271.187 155.431 270.984 154.783 270.577C154.139 270.167 153.644 269.601 153.298 268.881C152.952 268.161 152.779 267.336 152.779 266.406C152.779 265.464 152.956 264.633 153.31 263.913C153.664 263.188 154.163 262.623 154.807 262.216C155.451 261.81 156.21 261.607 157.083 261.607C157.787 261.607 158.415 261.737 158.966 261.999C159.518 262.257 159.963 262.619 160.301 263.086C160.643 263.552 160.846 264.098 160.91 264.722H159.154C159.057 264.287 158.836 263.913 158.49 263.599C158.147 263.285 157.689 263.128 157.113 263.128C156.61 263.128 156.169 263.261 155.791 263.526C155.417 263.788 155.125 264.162 154.916 264.649C154.706 265.132 154.602 265.704 154.602 266.364C154.602 267.04 154.704 267.623 154.91 268.114C155.115 268.605 155.405 268.986 155.779 269.255C156.157 269.525 156.602 269.66 157.113 269.66C157.455 269.66 157.765 269.597 158.043 269.473C158.325 269.344 158.56 269.161 158.749 268.923C158.942 268.686 159.077 268.4 159.154 268.066H160.91C160.846 268.666 160.651 269.201 160.325 269.672C159.999 270.143 159.562 270.513 159.015 270.783C158.471 271.052 157.834 271.187 157.101 271.187ZM166.447 271.187C165.577 271.187 164.819 270.988 164.171 270.589C163.523 270.191 163.02 269.634 162.661 268.917C162.303 268.201 162.124 267.364 162.124 266.406C162.124 265.444 162.303 264.603 162.661 263.882C163.02 263.162 163.523 262.603 164.171 262.204C164.819 261.806 165.577 261.607 166.447 261.607C167.316 261.607 168.075 261.806 168.722 262.204C169.37 262.603 169.874 263.162 170.232 263.882C170.59 264.603 170.769 265.444 170.769 266.406C170.769 267.364 170.59 268.201 170.232 268.917C169.874 269.634 169.37 270.191 168.722 270.589C168.075 270.988 167.316 271.187 166.447 271.187ZM166.453 269.672C167.016 269.672 167.483 269.523 167.853 269.225C168.223 268.927 168.497 268.531 168.674 268.036C168.855 267.541 168.946 266.996 168.946 266.4C168.946 265.808 168.855 265.265 168.674 264.77C168.497 264.271 168.223 263.87 167.853 263.569C167.483 263.267 167.016 263.116 166.453 263.116C165.885 263.116 165.414 263.267 165.04 263.569C164.67 263.87 164.394 264.271 164.213 264.77C164.036 265.265 163.947 265.808 163.947 266.4C163.947 266.996 164.036 267.541 164.213 268.036C164.394 268.531 164.67 268.927 165.04 269.225C165.414 269.523 165.885 269.672 166.453 269.672ZM172.484 271V261.727H174.216V263.237H174.331C174.524 262.725 174.84 262.327 175.279 262.041C175.718 261.751 176.243 261.607 176.855 261.607C177.474 261.607 177.994 261.751 178.412 262.041C178.835 262.331 179.147 262.729 179.348 263.237H179.444C179.666 262.741 180.018 262.347 180.501 262.053C180.984 261.755 181.559 261.607 182.227 261.607C183.069 261.607 183.755 261.87 184.286 262.397C184.821 262.925 185.089 263.719 185.089 264.782V271H183.284V264.951C183.284 264.323 183.113 263.868 182.771 263.587C182.429 263.305 182.02 263.164 181.545 263.164C180.958 263.164 180.501 263.345 180.175 263.707C179.849 264.066 179.686 264.526 179.686 265.09V271H177.887V264.836C177.887 264.333 177.73 263.929 177.416 263.623C177.102 263.317 176.694 263.164 176.191 263.164C175.848 263.164 175.532 263.255 175.243 263.436C174.957 263.613 174.726 263.86 174.548 264.178C174.375 264.496 174.289 264.864 174.289 265.283V271H172.484ZM187.208 274.477V261.727H188.971V263.23H189.122C189.227 263.037 189.378 262.814 189.575 262.56C189.772 262.307 190.046 262.085 190.396 261.896C190.746 261.703 191.209 261.607 191.784 261.607C192.533 261.607 193.201 261.796 193.789 262.174C194.376 262.552 194.837 263.098 195.171 263.81C195.509 264.522 195.678 265.38 195.678 266.382C195.678 267.384 195.511 268.243 195.177 268.96C194.843 269.672 194.384 270.221 193.801 270.608C193.217 270.99 192.551 271.181 191.802 271.181C191.239 271.181 190.778 271.087 190.42 270.897C190.066 270.708 189.788 270.487 189.587 270.233C189.386 269.98 189.231 269.754 189.122 269.557H189.013V274.477H187.208ZM188.977 266.364C188.977 267.016 189.072 267.587 189.261 268.078C189.45 268.569 189.724 268.953 190.082 269.231C190.44 269.505 190.879 269.642 191.398 269.642C191.937 269.642 192.388 269.499 192.75 269.213C193.112 268.923 193.386 268.531 193.571 268.036C193.76 267.541 193.855 266.983 193.855 266.364C193.855 265.752 193.762 265.203 193.577 264.716C193.396 264.229 193.122 263.844 192.756 263.562C192.394 263.281 191.941 263.14 191.398 263.14C190.875 263.14 190.432 263.275 190.07 263.544C189.712 263.814 189.44 264.19 189.255 264.673C189.07 265.156 188.977 265.72 188.977 266.364ZM199.205 258.636V271H197.4V258.636H199.205ZM205.33 271.187C204.417 271.187 203.63 270.992 202.97 270.602C202.314 270.207 201.807 269.654 201.449 268.941C201.094 268.225 200.917 267.386 200.917 266.424C200.917 265.474 201.094 264.637 201.449 263.913C201.807 263.188 202.306 262.623 202.946 262.216C203.59 261.81 204.342 261.607 205.204 261.607C205.727 261.607 206.234 261.693 206.725 261.866C207.216 262.039 207.657 262.311 208.047 262.681C208.437 263.051 208.745 263.532 208.971 264.124C209.196 264.712 209.309 265.426 209.309 266.267V266.907H201.938V265.555H207.54C207.54 265.08 207.443 264.659 207.25 264.293C207.057 263.923 206.785 263.631 206.435 263.418C206.089 263.204 205.682 263.098 205.216 263.098C204.708 263.098 204.266 263.222 203.887 263.472C203.513 263.717 203.223 264.039 203.018 264.438C202.817 264.832 202.716 265.261 202.716 265.724V266.78C202.716 267.4 202.825 267.927 203.042 268.362C203.264 268.797 203.572 269.129 203.966 269.358C204.36 269.583 204.821 269.696 205.348 269.696C205.69 269.696 206.002 269.648 206.284 269.551C206.566 269.451 206.809 269.302 207.015 269.104C207.22 268.907 207.377 268.664 207.485 268.374L209.194 268.682C209.057 269.185 208.812 269.626 208.457 270.004C208.107 270.378 207.667 270.67 207.135 270.879C206.608 271.085 206.006 271.187 205.33 271.187ZM215.34 261.727V263.176H210.275V261.727H215.34ZM211.633 259.506H213.438V268.277C213.438 268.627 213.491 268.891 213.595 269.068C213.7 269.241 213.835 269.36 214 269.424C214.169 269.485 214.352 269.515 214.549 269.515C214.694 269.515 214.821 269.505 214.929 269.485C215.038 269.465 215.123 269.449 215.183 269.436L215.509 270.928C215.404 270.968 215.255 271.008 215.062 271.048C214.869 271.093 214.627 271.117 214.338 271.121C213.863 271.129 213.42 271.044 213.01 270.867C212.599 270.69 212.267 270.416 212.014 270.046C211.76 269.676 211.633 269.211 211.633 268.652V259.506ZM220.933 271.187C220.02 271.187 219.233 270.992 218.573 270.602C217.917 270.207 217.41 269.654 217.052 268.941C216.697 268.225 216.52 267.386 216.52 266.424C216.52 265.474 216.697 264.637 217.052 263.913C217.41 263.188 217.909 262.623 218.549 262.216C219.193 261.81 219.945 261.607 220.807 261.607C221.33 261.607 221.837 261.693 222.328 261.866C222.819 262.039 223.26 262.311 223.65 262.681C224.04 263.051 224.348 263.532 224.574 264.124C224.799 264.712 224.912 265.426 224.912 266.267V266.907H217.541V265.555H223.143C223.143 265.08 223.046 264.659 222.853 264.293C222.66 263.923 222.388 263.631 222.038 263.418C221.692 263.204 221.286 263.098 220.819 263.098C220.312 263.098 219.869 263.222 219.491 263.472C219.116 263.717 218.827 264.039 218.621 264.438C218.42 264.832 218.319 265.261 218.319 265.724V266.78C218.319 267.4 218.428 267.927 218.645 268.362C218.867 268.797 219.175 269.129 219.569 269.358C219.963 269.583 220.424 269.696 220.952 269.696C221.294 269.696 221.606 269.648 221.887 269.551C222.169 269.451 222.412 269.302 222.618 269.104C222.823 268.907 222.98 268.664 223.089 268.374L224.797 268.682C224.66 269.185 224.415 269.626 224.061 270.004C223.71 270.378 223.27 270.67 222.738 270.879C222.211 271.085 221.61 271.187 220.933 271.187ZM230.086 271.181C229.337 271.181 228.669 270.99 228.081 270.608C227.498 270.221 227.039 269.672 226.705 268.96C226.375 268.243 226.21 267.384 226.21 266.382C226.21 265.38 226.377 264.522 226.711 263.81C227.049 263.098 227.512 262.552 228.1 262.174C228.687 261.796 229.353 261.607 230.098 261.607C230.673 261.607 231.136 261.703 231.486 261.896C231.84 262.085 232.114 262.307 232.307 262.56C232.505 262.814 232.657 263.037 232.766 263.23H232.875V258.636H234.68V271H232.917V269.557H232.766C232.657 269.754 232.501 269.98 232.295 270.233C232.094 270.487 231.816 270.708 231.462 270.897C231.108 271.087 230.649 271.181 230.086 271.181ZM230.484 269.642C231.003 269.642 231.442 269.505 231.8 269.231C232.162 268.953 232.436 268.569 232.621 268.078C232.81 267.587 232.905 267.016 232.905 266.364C232.905 265.72 232.812 265.156 232.627 264.673C232.442 264.19 232.17 263.814 231.812 263.544C231.454 263.275 231.011 263.14 230.484 263.14C229.941 263.14 229.488 263.281 229.126 263.562C228.764 263.844 228.49 264.229 228.305 264.716C228.124 265.203 228.033 265.752 228.033 266.364C228.033 266.983 228.126 267.541 228.311 268.036C228.496 268.531 228.77 268.923 229.132 269.213C229.498 269.499 229.949 269.642 230.484 269.642ZM245.484 261.727V263.176H240.419V261.727H245.484ZM241.777 259.506H243.582V268.277C243.582 268.627 243.634 268.891 243.739 269.068C243.844 269.241 243.978 269.36 244.143 269.424C244.312 269.485 244.496 269.515 244.693 269.515C244.838 269.515 244.964 269.505 245.073 269.485C245.182 269.465 245.266 269.449 245.327 269.436L245.653 270.928C245.548 270.968 245.399 271.008 245.206 271.048C245.013 271.093 244.771 271.117 244.481 271.121C244.007 271.129 243.564 271.044 243.153 270.867C242.743 270.69 242.411 270.416 242.157 270.046C241.904 269.676 241.777 269.211 241.777 268.652V259.506ZM250.987 271.187C250.117 271.187 249.359 270.988 248.711 270.589C248.063 270.191 247.56 269.634 247.201 268.917C246.843 268.201 246.664 267.364 246.664 266.406C246.664 265.444 246.843 264.603 247.201 263.882C247.56 263.162 248.063 262.603 248.711 262.204C249.359 261.806 250.117 261.607 250.987 261.607C251.856 261.607 252.615 261.806 253.263 262.204C253.91 262.603 254.414 263.162 254.772 263.882C255.13 264.603 255.309 265.444 255.309 266.406C255.309 267.364 255.13 268.201 254.772 268.917C254.414 269.634 253.91 270.191 253.263 270.589C252.615 270.988 251.856 271.187 250.987 271.187ZM250.993 269.672C251.556 269.672 252.023 269.523 252.393 269.225C252.763 268.927 253.037 268.531 253.214 268.036C253.395 267.541 253.486 266.996 253.486 266.4C253.486 265.808 253.395 265.265 253.214 264.77C253.037 264.271 252.763 263.87 252.393 263.569C252.023 263.267 251.556 263.116 250.993 263.116C250.425 263.116 249.954 263.267 249.58 263.569C249.21 263.87 248.934 264.271 248.753 264.77C248.576 265.265 248.487 265.808 248.487 266.4C248.487 266.996 248.576 267.541 248.753 268.036C248.934 268.531 249.21 268.927 249.58 269.225C249.954 269.523 250.425 269.672 250.993 269.672ZM260.495 271.181C259.747 271.181 259.078 270.99 258.491 270.608C257.907 270.221 257.448 269.672 257.114 268.96C256.784 268.243 256.619 267.384 256.619 266.382C256.619 265.38 256.786 264.522 257.12 263.81C257.459 263.098 257.921 262.552 258.509 262.174C259.097 261.796 259.763 261.607 260.507 261.607C261.083 261.607 261.546 261.703 261.896 261.896C262.25 262.085 262.524 262.307 262.717 262.56C262.914 262.814 263.067 263.037 263.176 263.23H263.284V258.636H265.089V271H263.326V269.557H263.176C263.067 269.754 262.91 269.98 262.705 270.233C262.503 270.487 262.226 270.708 261.872 270.897C261.517 271.087 261.059 271.181 260.495 271.181ZM260.894 269.642C261.413 269.642 261.851 269.505 262.21 269.231C262.572 268.953 262.845 268.569 263.031 268.078C263.22 267.587 263.314 267.016 263.314 266.364C263.314 265.72 263.222 265.156 263.037 264.673C262.852 264.19 262.58 263.814 262.222 263.544C261.863 263.275 261.421 263.14 260.894 263.14C260.35 263.14 259.897 263.281 259.535 263.562C259.173 263.844 258.899 264.229 258.714 264.716C258.533 265.203 258.443 265.752 258.443 266.364C258.443 266.983 258.535 267.541 258.72 268.036C258.905 268.531 259.179 268.923 259.541 269.213C259.908 269.499 260.358 269.642 260.894 269.642ZM270.064 271.205C269.476 271.205 268.945 271.097 268.47 270.879C267.995 270.658 267.619 270.338 267.341 269.919C267.068 269.501 266.931 268.988 266.931 268.38C266.931 267.857 267.031 267.426 267.233 267.088C267.434 266.75 267.706 266.482 268.048 266.285C268.39 266.088 268.772 265.939 269.195 265.838C269.617 265.738 270.048 265.661 270.487 265.609C271.042 265.545 271.493 265.492 271.839 265.452C272.185 265.408 272.437 265.337 272.593 265.241C272.75 265.144 272.829 264.987 272.829 264.77V264.728C272.829 264.2 272.68 263.792 272.382 263.502C272.088 263.212 271.65 263.067 271.066 263.067C270.458 263.067 269.979 263.202 269.629 263.472C269.283 263.738 269.044 264.033 268.911 264.359L267.215 263.973C267.416 263.41 267.71 262.955 268.096 262.609C268.486 262.259 268.935 262.005 269.442 261.848C269.949 261.687 270.483 261.607 271.042 261.607C271.412 261.607 271.805 261.651 272.219 261.739C272.638 261.824 273.028 261.981 273.39 262.21C273.757 262.44 274.056 262.768 274.29 263.194C274.523 263.617 274.64 264.166 274.64 264.842V271H272.877V269.732H272.805C272.688 269.966 272.513 270.195 272.28 270.42C272.046 270.646 271.746 270.833 271.38 270.982C271.014 271.131 270.575 271.205 270.064 271.205ZM270.456 269.756C270.955 269.756 271.382 269.658 271.736 269.461C272.094 269.263 272.366 269.006 272.551 268.688C272.74 268.366 272.835 268.022 272.835 267.656V266.46C272.771 266.525 272.646 266.585 272.461 266.641C272.28 266.694 272.072 266.74 271.839 266.78C271.605 266.816 271.378 266.851 271.157 266.883C270.935 266.911 270.75 266.935 270.601 266.955C270.251 267 269.931 267.074 269.641 267.179C269.356 267.283 269.126 267.434 268.953 267.631C268.784 267.825 268.7 268.082 268.7 268.404C268.7 268.851 268.865 269.189 269.195 269.418C269.525 269.644 269.945 269.756 270.456 269.756ZM277.553 274.477C277.283 274.477 277.038 274.455 276.817 274.411C276.595 274.371 276.43 274.326 276.322 274.278L276.756 272.799C277.086 272.888 277.38 272.926 277.638 272.914C277.895 272.902 278.123 272.805 278.32 272.624C278.521 272.443 278.698 272.147 278.851 271.737L279.074 271.121L275.682 261.727H277.614L279.962 268.923H280.058L282.407 261.727H284.345L280.523 272.238C280.346 272.721 280.121 273.129 279.847 273.463C279.573 273.801 279.247 274.055 278.869 274.224C278.491 274.393 278.052 274.477 277.553 274.477Z" fill="white" fill-opacity="0.8"/>
<path d="M172.062 161.909V191H167.658V166.312H167.488L160.528 170.858V166.653L167.786 161.909H172.062ZM198.653 160.545L189.278 195.375H185.486L194.861 160.545H198.653ZM219.918 191.398C217.968 191.398 216.225 191.062 214.691 190.389C213.166 189.717 211.959 188.784 211.069 187.591C210.188 186.388 209.715 184.996 209.648 183.415H214.109C214.165 184.277 214.454 185.025 214.975 185.659C215.505 186.284 216.197 186.767 217.049 187.108C217.901 187.449 218.848 187.619 219.89 187.619C221.036 187.619 222.049 187.42 222.93 187.023C223.82 186.625 224.516 186.071 225.018 185.361C225.52 184.641 225.771 183.812 225.771 182.875C225.771 181.9 225.52 181.043 225.018 180.304C224.525 179.556 223.801 178.969 222.844 178.543C221.897 178.116 220.752 177.903 219.407 177.903H216.95V174.324H219.407C220.487 174.324 221.433 174.13 222.248 173.741C223.072 173.353 223.716 172.813 224.18 172.122C224.644 171.421 224.876 170.602 224.876 169.665C224.876 168.765 224.672 167.984 224.265 167.321C223.867 166.649 223.299 166.123 222.56 165.744C221.831 165.366 220.969 165.176 219.975 165.176C219.028 165.176 218.143 165.351 217.319 165.702C216.504 166.043 215.842 166.535 215.33 167.179C214.819 167.813 214.544 168.576 214.506 169.466H210.259C210.307 167.894 210.771 166.511 211.651 165.318C212.541 164.125 213.716 163.192 215.174 162.52C216.632 161.848 218.252 161.511 220.032 161.511C221.897 161.511 223.507 161.876 224.862 162.605C226.225 163.325 227.276 164.286 228.015 165.489C228.763 166.691 229.132 168.008 229.123 169.438C229.132 171.066 228.678 172.449 227.759 173.585C226.85 174.722 225.638 175.484 224.123 175.872V176.099C226.055 176.393 227.551 177.16 228.612 178.401C229.682 179.641 230.212 181.18 230.202 183.017C230.212 184.617 229.767 186.052 228.867 187.321C227.977 188.59 226.76 189.589 225.217 190.318C223.673 191.038 221.907 191.398 219.918 191.398Z" fill="white" fill-opacity="0.8"/>
</svg>
