<?xml version="1.0" encoding="UTF-8" standalone="no"?>
<!-- Created with Inkscape (http://www.inkscape.org/) -->

<svg
   version="1.1"
   id="svg59"

   xmlns="http://www.w3.org/2000/svg"
   xmlns:svg="http://www.w3.org/2000/svg">
  <defs
     id="defs63" />
  <g id="layer1">
		<path id="hand" title="Fingers" class="land" d="m 76.810863,396.68535 c 3.670623,1.07339 9.667953,2.81455 12.989037,3.91106 3.321084,1.09652 3.965945,1.54792 4.513757,2.35423 0.547812,0.80631 0.999215,1.96706 1.160165,3.48239 0.16095,1.51534 0.03198,3.38543 -0.129277,4.90084 -0.161257,1.51541 -0.354715,2.67616 -2.321654,7.93183 -1.966939,5.25567 -5.707134,14.60616 -8.601914,21.4027 -2.89478,6.79655 -4.943991,11.03889 -6.424577,13.75277 -1.480585,2.71389 -2.392556,3.89945 -3.236,4.7657 -0.843444,0.86625 -1.618623,1.41344 -2.233715,1.59615 -0.615092,0.1827 -1.071076,3.1e-4 -1.367984,-0.50097 -0.296907,-0.50127 -0.433702,-1.32204 -0.319886,-2.41668 0.113816,-1.09463 0.478603,-2.46258 0.957393,-3.96744 0.47879,-1.50486 1.071573,-3.1464 1.823977,-4.85649 0.752405,-1.71009 1.664375,-3.48843 2.462405,-4.85653 0.798029,-1.36809 1.482007,-2.32566 -0.06783,-2.87293 -1.549836,-0.54728 -5.334518,-0.68407 -7.40991,-0.11376 -2.075391,0.57032 -2.44018,1.84708 -3.146989,3.55696 -0.70681,1.70988 -1.755576,3.85301 -3.00957,6.22417 -1.253993,2.37116 -2.713148,4.97028 -3.989916,7.0222 -1.276767,2.05191 -2.371136,3.55667 -3.374168,4.6281 -1.003033,1.07144 -1.915004,1.70982 -2.780935,1.96078 -0.86593,0.25096 -1.686705,0.11416 -2.256869,-0.18177 -0.570165,-0.29592 -0.889358,-0.75191 -0.798653,-1.70979 0.0907,-0.95787 0.59229,-2.41703 1.276288,-4.21827 0.683998,-1.80124 1.550369,-3.94437 2.530779,-6.01925 0.980409,-2.07488 2.074776,-4.08122 3.123606,-5.7685 1.048831,-1.68728 2.051995,-3.05524 2.64475,-3.96706 0.592756,-0.91182 0.775152,-1.36781 -0.820191,-1.89237 -1.595343,-0.52456 -4.969637,-1.11734 -6.908294,-0.82078 -1.938657,0.29655 -2.44024,1.48211 -3.580232,3.60243 -1.139991,2.12031 -2.918337,5.17542 -4.651118,7.93417 -1.732781,2.75874 -3.419928,5.22106 -4.78787,7.02217 -1.367942,1.8011 -2.416712,2.94107 -3.419832,3.8986 -1.003119,0.95753 -1.96069,1.7327 -2.849445,2.12035 -0.888755,0.38764 -1.70953,0.38764 -2.279526,0.22854 -0.569996,-0.1591 -0.889186,-0.47829 -1.026512,-1.02553 -0.137327,-0.54723 -0.09173,-1.3224 0.341399,-2.64504 0.433127,-1.32264 1.253902,-3.19218 2.348312,-5.35825 1.09441,-2.16606 2.46237,-4.62839 4.058383,-7.29603 1.596013,-2.66764 3.419956,-5.54035 4.468729,-7.25026 1.048774,-1.70992 1.322364,-2.2571 1.459262,-2.7584 0.136898,-0.5013 0.136898,-0.95728 -1.070916,-1.5504 -1.207814,-0.59313 -3.624537,-1.32271 -5.677108,-0.91249 -2.052571,0.41021 -3.739717,1.96056 -5.426961,3.67061 -1.687244,1.71004 -3.37439,3.57958 -5.266794,5.69999 -1.892404,2.1204 -3.989941,4.49153 -5.699842,6.20144 -1.7099,1.70991 -3.03226,2.75868 -4.194782,3.41983 -1.162522,0.66116 -2.16569,0.93475 -2.826634,0.98078 -0.660943,0.046 -0.98013,-0.13637 -1.2995511,-0.47813 -0.3194207,-0.34176 -0.6386137,-0.84334 -0.6846734,-1.50479 -0.04606,-0.66145 0.1819322,-1.48222 0.5923472,-2.34883 0.4104153,-0.86661 1.0031953,-1.77858 2.2572493,-3.32908 1.254054,-1.55049 3.169193,-3.73922 5.198424,-5.90526 2.02923,-2.16603 4.172361,-4.30916 5.836766,-5.95077 1.664404,-1.6416 2.849965,-2.78156 4.240712,-4.3319 1.390747,-1.55034 2.986698,-3.51108 3.534048,-5.72215 0.54735,-2.21108 0.04577,-4.6734 -0.683352,-6.06457 -0.729119,-1.39116 -1.686689,-1.71035 -4.14943,-1.11785 -2.46274,0.59251 -6.429819,2.09726 -9.211307,3.03207 -2.781489,0.93482 -4.377439,1.29961 -5.950464,1.41373 -1.5730249,0.11413 -3.1233769,-0.0227 -4.2178452,-0.45538 -1.0944683,-0.43272 -1.7328507,-1.1623 -1.9386083,-1.89212 -0.2057575,-0.72981 0.022236,-1.45939 0.2958501,-2.07517 0.2736144,-0.61578 0.5928075,-1.11737 1.6418742,-1.8472 1.0490667,-0.72982 2.8274109,-1.68739 4.5602692,-2.531 1.732858,-0.84361 3.420002,-1.57318 5.745673,-2.41678 2.325672,-0.84359 5.28958,-1.80116 8.139435,-3.05516 2.849854,-1.25399 5.585768,-2.80434 8.139347,-4.28634 2.553579,-1.48199 4.924708,-2.89555 7.660846,-4.14955 2.736138,-1.25401 5.836841,-2.34838 8.800927,-3.19196 2.964085,-0.84357 5.791197,-1.43636 8.299243,-1.86953 2.508047,-0.43317 4.696779,-0.70676 6.748832,-0.86632 2.052054,-0.15955 3.967194,-0.20515 5.596865,-0.0249 1.629672,0.18021 2.97356,0.58581 6.644183,1.65919 z"/>
		<path id="arm" title="Arms" class="land" d="m 66.89006,393.14762 c 0.145664,1.57992 2.950867,1.74114 7.545728,2.80536 4.594862,1.06421 10.97899,3.03104 14.622528,4.28872 3.643538,1.25768 4.546344,1.80581 5.465271,2.14409 0.918926,0.33828 1.853974,0.46726 6.351533,-2.88627 4.49757,-3.35353 12.55833,-10.18906 20.58705,-17.66964 8.02871,-7.48058 16.02499,-15.60583 22.7962,-22.8607 6.77121,-7.25486 12.31701,-13.63899 16.31522,-18.57225 3.99821,-4.93326 6.44868,-8.41551 8.31881,-11.28516 1.87012,-2.86965 3.15985,-5.12667 5.67489,-9.51188 2.51505,-4.38521 6.25524,-10.8983 10.41473,-23.37661 4.15949,-12.4783 8.73801,-30.92134 12.25258,-43.33532 3.51457,-12.41397 5.96504,-18.7981 7.6095,-23.76358 1.64445,-4.96547 2.48277,-8.51221 2.83762,-10.73683 0.35484,-2.22463 0.22587,-3.12743 -0.0964,-4.22369 -0.32228,-1.09625 -0.83817,-2.38597 -2.77249,-4.15962 -1.93432,-1.77364 -5.2876,-4.03065 -13.34889,-3.38623 -8.0613,0.64443 -20.82955,4.19117 -27.89133,6.83533 -7.06178,2.64417 -8.41598,4.38529 -9.89925,6.77147 -1.48327,2.38618 -3.09543,5.41702 -4.54641,8.8995 -1.45098,3.48249 -2.7407,7.41615 -3.64351,10.67287 -0.9028,3.25672 -1.41869,5.83616 -1.87007,9.28635 -0.45138,3.45018 -0.8383,7.77075 -0.99946,11.02745 -0.16116,3.2567 -0.0967,5.44923 -0.99964,8.47987 -0.90296,3.03065 -2.77306,6.89982 -4.15924,9.05984 -1.38619,2.16002 -2.28899,2.61142 -3.99811,3.96576 -1.70911,1.35433 -4.22408,3.61135 -6.3845,5.90077 -2.16043,2.28942 -3.96604,4.61092 -5.7395,7.28727 -1.77346,2.67635 -3.51458,5.70719 -5.51373,9.57654 -1.99914,3.86934 -4.25615,8.57682 -6.64221,14.09061 -2.38607,5.51379 -4.90103,11.83343 -7.09362,17.41165 -2.192586,5.57821 -4.062682,10.41467 -5.803853,14.41285 -1.741172,3.99818 -3.353325,7.158 -4.933273,10.05992 -1.579949,2.90192 -3.127616,5.54585 -4.933249,8.18978 -1.805634,2.64392 -3.86919,5.28785 -6.35194,8.12527 -2.482751,2.83742 -5.384627,5.86827 -8.093152,8.88312 -2.708525,3.01486 -5.223487,6.01346 -5.077823,7.59339 z"/>
		<path id="chest" title="Chest" class="land" d="m 208.16594,218.48448 c 1.93427,7.48057 4.25581,20.636 6.0615,30.18021 1.80569,9.54421 3.09541,15.47693 5.41711,22.57066 2.3217,7.09372 5.67497,15.34794 12.89792,19.34554 7.22295,3.9976 18.31456,3.73966 27.60073,2.96574 9.28618,-0.77392 16.76657,-2.06364 32.50184,-2.77294 15.73526,-0.70929 39.7241,-0.83827 61.13415,-0.19334 21.41005,0.64493 40.24,2.06363 50.10655,2.77295 9.86655,0.70932 10.76935,0.70932 12.76789,-4.64291 1.99855,-5.35223 5.09388,-16.05694 7.93139,-29.66386 2.8375,-13.60693 5.41694,-30.11538 6.90013,-38.95028 1.48318,-8.8349 1.87009,-9.99565 3.93404,-11.47928 2.06394,-1.48362 5.80414,-3.28924 12.12438,-2.83751 6.32024,0.45172 15.21932,3.16013 21.60361,4.96574 6.38428,1.80561 10.25345,2.70842 12.31642,1.61243 2.06298,-1.096 2.32092,-4.19134 2.44994,-8.44752 0.12901,-4.25618 0.12901,-9.67301 -0.12883,-13.67118 -0.25784,-3.99817 -0.77373,-6.57762 -1.80538,-9.54405 -1.03165,-2.96642 -2.57932,-6.31969 -4.64279,-9.67312 -2.06347,-3.35343 -4.64292,-6.70671 -7.02883,-9.1574 -2.38592,-2.4507 -4.57844,-3.99836 -7.73834,-5.35284 -3.1599,-1.35448 -7.28702,-2.51523 -11.54329,-3.28921 -4.25626,-0.77397 -8.64132,-1.16089 -16.25099,-1.28992 -7.60967,-0.12902 -18.44334,-5e-5 -28.63247,0.32238 -10.18913,0.32242 -19.73308,0.83831 -29.01931,0.96732 -9.28623,0.12901 -18.31429,-0.12893 -23.73157,0.1934 -5.41727,0.32233 -7.22289,1.22514 -15.99304,1.67665 -8.77014,0.45151 -24.50475,0.45151 -33.21047,0.0649 -8.70571,-0.38666 -10.38235,-1.1605 -13.41338,-1.67664 -3.03102,-0.51615 -7.41608,-0.7741 -12.31722,-0.83863 -4.90114,-0.0645 -10.31797,0.0644 -17.66962,0.12895 -7.35165,0.0645 -16.63765,0.0645 -26.0529,2e-5 -9.41526,-0.0645 -18.9592,-0.19346 -25.66592,-0.32243 -6.70672,-0.12896 -10.57589,-0.25793 -13.6069,-0.19351 -3.03101,0.0644 -5.22354,0.32237 -8.25468,1.28964 -3.03114,0.96728 -6.90031,2.64392 -10.1893,4.32063 -3.28898,1.6767 -5.9974,3.35334 -8.38368,5.93311 -2.38629,2.57977 -4.44984,6.06202 -5.99756,9.22206 -1.54772,3.16004 -2.5795,5.99743 -3.74028,9.86679 -1.16077,3.86936 -2.45049,8.7703 -3.15979,12.44624 -0.7093,3.67593 -0.83827,6.1264 -0.70907,7.93219 0.1292,1.80579 0.51612,2.96654 0.90294,4.70769 0.38682,1.74116 0.77374,4.06265 2.32164,4.70685 1.5479,0.64419 4.25632,-0.38759 7.28738,-1.2259 3.03106,-0.83832 6.38434,-1.48318 11.60784,-2.77296 5.22351,-1.28979 12.31698,-3.22437 16.96034,-3.54636 4.64337,-0.32199 6.8359,0.96774 8.70592,2.51564 1.87002,1.54791 3.41769,3.35352 5.35195,10.8341 z"/>
		<path id="hand" title="Fingers" class="land" d="m 547.01445,402.78848 c 0.29014,-0.38684 0.87052,-1.16069 4.19206,-2.48288 3.32154,-1.32219 9.38324,-3.19228 12.93017,-4.1918 3.54693,-0.99951 4.57871,-1.12848 6.38447,-1.16066 1.80575,-0.0322 4.38519,0.0323 6.93253,0.29036 2.54734,0.25804 5.0623,0.70945 7.86755,1.28987 2.80524,0.58042 5.90058,1.28978 9.25398,2.35394 3.3534,1.06416 6.96462,2.48285 9.51186,3.70828 2.54723,1.22543 4.03041,2.25721 5.73936,3.38572 1.70895,1.12852 3.64353,2.35375 5.7394,3.2241 2.09587,0.87035 4.35288,1.38624 6.93242,2.28921 2.57955,0.90297 5.48143,2.1927 7.63007,3.6231 2.14864,1.43039 3.54416,3.00081 4.15787,4.1481 0.61372,1.14729 0.44663,1.87159 -0.0898,2.56914 -0.53642,0.69755 -1.44247,1.36912 -2.50768,1.64055 -1.06521,0.27142 -2.29045,0.14245 -4.03157,-0.37328 -1.74113,-0.51572 -3.99814,-1.41852 -5.90054,-2.12793 -1.9024,-0.70941 -3.45007,-1.2253 -4.96554,-1.87007 -1.51547,-0.64477 -2.99865,-1.41861 -3.99821,-1.90235 -0.99956,-0.48375 -1.51543,-0.6772 -2.38671,0.12879 -0.87127,0.806 -2.09651,2.61161 -2.38619,3.93406 -0.28969,1.32244 0.35518,2.16076 1.87069,3.96642 1.51551,1.80565 3.90149,4.57855 6.67449,7.80296 2.77299,3.22441 5.93281,6.90012 8.35105,9.89884 2.41824,2.99871 4.09489,5.32022 5.25557,7.09367 1.16069,1.77345 1.80554,2.99868 2.09537,3.8691 0.28983,0.87041 0.22534,1.3863 -0.1612,1.74046 -0.38654,0.35416 -1.09588,0.54762 -1.90175,0.54784 -0.80586,2.1e-4 -1.70866,-0.19325 -2.676,-0.67661 -0.96735,-0.48337 -1.99913,-1.25721 -4.51426,-3.86888 -2.51513,-2.61168 -6.51328,-7.06123 -9.06057,-9.96315 -2.54729,-2.90193 -3.64356,-4.25614 -4.4496,-5.19126 -0.80604,-0.93512 -1.32193,-1.451 -2.83764,-1.22589 -1.51571,0.22511 -4.03067,1.1924 -5.06249,2.22492 -1.03181,1.03252 -0.58041,2.12878 0.22581,3.61199 0.80622,1.48321 1.96698,3.35331 3.51468,5.93284 1.5477,2.57954 3.48228,5.86833 4.93323,8.41561 1.45095,2.54727 2.41824,4.35288 2.85313,5.51346 0.4349,1.16057 0.33817,1.67646 -0.0645,2.0629 -0.4027,0.38643 -1.11205,0.64438 -1.86958,0.78955 -0.75754,0.14518 -1.56361,0.17741 -2.56309,-0.22523 -0.99948,-0.40264 -2.19247,-1.24096 -3.38562,-2.36937 -1.19314,-1.1284 -2.38614,-2.5471 -3.88556,-4.62681 -1.49942,-2.0797 -3.30503,-4.82036 -4.70767,-7.02906 -1.40264,-2.2087 -2.40218,-3.88534 -3.19222,-5.33631 -0.79005,-1.45097 -1.37042,-2.6762 -1.78954,-3.51455 -0.41912,-0.83835 -0.67706,-1.28976 -2.25698,-1.24205 -1.57992,0.0477 -4.48179,0.59584 -5.86853,1.16077 -1.38674,0.56492 -1.25777,1.14529 -0.49983,2.6769 0.75795,1.53162 2.1444,4.01434 3.35349,6.41652 1.20908,2.40219 2.24086,4.72369 3.0308,6.60997 0.78993,1.88627 1.33806,3.33721 1.64419,4.49792 0.30613,1.16071 0.37061,2.03128 0.25772,2.61113 -0.1129,0.57986 -0.40308,0.87004 -0.96699,1.11179 -0.56391,0.24174 -1.40223,0.4352 -2.20809,0.40324 -0.80587,-0.032 -1.5797,-0.28991 -2.22473,-0.72487 -0.64502,-0.43495 -1.16091,-1.04757 -2.4992,-3.48195 -1.33828,-2.43438 -3.49857,-6.69047 -5.25588,-10.22118 -1.75731,-3.53071 -3.11152,-6.33586 -3.8852,-7.85138 -0.77368,-1.51552 -0.96714,-1.74123 -2.51481,-1.91908 -1.54766,-0.17785 -4.44954,-0.30683 -5.99783,-0.22612 -1.5483,0.0807 -1.74176,0.37089 -1.82225,0.69376 -0.0805,0.32286 -0.0482,0.67754 0.8548,2.8541 0.90305,2.17655 2.67642,6.17469 3.75655,8.6897 1.08012,2.51502 1.46704,3.54679 1.74102,4.41737 0.27399,0.87057 0.4352,1.57991 0.3544,2.14367 -0.0808,0.56376 -0.40323,0.98291 -0.75756,1.25682 -0.35433,0.2739 -0.74125,0.40287 -1.28911,0.25822 -0.54786,-0.14465 -1.25721,-0.56381 -1.98275,-1.07962 -0.72553,-0.51581 -1.46712,-1.12843 -2.06382,-1.80541 -0.5967,-0.67699 -1.0481,-1.41858 -1.67698,-2.78894 -0.62887,-1.37036 -1.43495,-3.36943 -2.19269,-5.27183 -0.75774,-1.90239 -1.46708,-3.708 -1.95075,-4.94939 -0.48367,-1.2414 -0.74161,-1.9185 -2.07975,-5.41701 -1.33814,-3.4985 -3.75636,-9.81815 -5.56194,-14.12271 -1.80558,-4.30456 -2.99858,-6.59381 -3.69205,-8.39951 -0.69347,-1.8057 -0.88693,-3.12767 -1.04818,-4.5303 -0.16126,-1.40264 -0.29023,-2.88582 -0.22585,-4.44978 0.0644,-1.56397 0.32232,-3.20837 0.45136,-4.03099 0.12904,-0.82263 0.12907,-0.8226 0.4192,-1.20945 z"/>
		<path id="arm" title="Arms" class="land" d="m 545.83767,403.36875 c 0.46759,-0.38696 1.40265,-1.16081 5.03039,-2.54737 3.62774,-1.38656 9.94738,-3.38563 13.62328,-4.46576 3.67589,-1.08013 4.70767,-1.24134 5.77183,-1.30575 1.06415,-0.0644 2.16042,-0.0322 2.8693,-0.16121 0.70887,-0.12902 1.0313,-0.41921 1.09585,-1.19248 0.0645,-0.77327 -0.12892,-2.03075 -0.54769,-2.99813 -0.41877,-0.96737 -1.06363,-1.64447 -2.41789,-3.06321 -1.35425,-1.41875 -3.41781,-3.57904 -4.51415,-4.73977 -1.09634,-1.16074 -1.22531,-1.32196 -1.983,-2.1281 -0.75769,-0.80615 -2.14415,-2.25708 -3.3211,-3.57905 -1.17694,-1.32197 -2.14424,-2.51496 -3.2728,-3.94982 -1.12855,-1.43485 -2.41828,-3.11149 -3.7726,-5.12671 -1.35432,-2.01522 -2.77302,-4.36896 -4.14343,-6.80338 -1.37041,-2.43442 -2.69237,-4.94937 -3.93381,-7.49665 -1.24144,-2.54728 -2.40219,-5.12672 -4.41748,-10.09233 -2.0153,-4.9656 -4.88493,-12.31701 -7.06137,-17.73399 -2.17645,-5.41699 -3.65963,-8.89923 -5.06222,-12.04303 -1.40259,-3.14379 -2.72455,-5.94894 -3.86917,-8.23826 -1.14462,-2.28933 -2.11192,-4.0627 -3.11147,-5.83612 -0.99954,-1.77343 -2.03132,-3.5468 -3.15977,-5.2074 -1.12845,-1.66061 -2.35368,-3.20828 -3.70788,-4.75603 -1.3542,-1.54776 -2.83738,-3.09542 -4.41731,-4.65928 -1.57993,-1.56386 -3.25657,-3.14377 -4.51404,-4.24014 -1.25746,-1.09637 -2.09578,-1.70899 -2.66011,-2.01571 -0.56433,-0.30673 -0.85452,-0.30673 -1.83819,-2.12793 -0.98367,-1.82121 -2.66032,-5.46468 -3.5634,-8.89874 -0.90308,-3.43407 -1.03205,-6.65838 -1.2255,-10.01175 -0.19345,-3.35336 -0.45139,-6.83561 -0.90273,-10.12446 -0.45133,-3.28884 -1.09619,-6.38417 -1.83776,-9.38285 -0.74156,-2.99868 -1.57988,-5.90055 -2.57933,-8.5768 -0.99946,-2.67625 -2.16021,-5.12672 -3.4176,-7.2871 -1.2574,-2.16039 -2.6116,-4.03048 -3.67556,-5.35255 -1.06396,-1.32206 -1.83779,-2.0959 -8.44778,-4.32107 -6.60999,-2.22518 -19.05582,-5.90089 -27.11723,-6.64274 -8.0614,-0.74185 -11.73711,1.45068 -13.83319,2.93411 -2.09607,1.48342 -2.61196,2.25725 -2.70854,3.99888 -0.0966,1.74162 0.22584,4.45003 1.19329,8.4806 0.96744,4.03056 2.57959,9.38291 5.32038,17.47619 2.74078,8.09329 6.60995,18.92695 9.57632,28.76136 2.96636,9.8344 5.02992,18.669 6.06158,23.76343 1.03166,5.09444 1.03166,6.44865 1.32209,7.86749 0.29044,1.41884 0.87082,2.90202 3.09575,7.31948 2.22493,4.41745 6.0941,11.76887 9.80225,17.95968 3.70815,6.19082 7.25489,11.22074 11.93036,16.89564 4.67547,5.67491 10.47922,11.99455 17.73416,19.53965 7.25494,7.5451 15.96057,16.31521 23.89264,23.60229 7.93207,7.28707 15.09003,13.09082 18.66854,15.99232 3.57851,2.90149 3.57851,2.90152 4.04609,2.51455 z"/>
		<path id="stomach" title="Stomach" class="land" d="m 232.60657,296.57808 c 3.8053,-1.35469 11.15687,-1.35469 18.70191,-1.80616 7.54504,-0.45147 15.28337,-1.35428 22.18359,-2.12813 6.90022,-0.77385 12.96192,-1.41871 22.57075,-1.61211 9.60882,-0.1934 22.76399,0.0645 32.37262,-0.0645 9.60863,-0.12903 15.67033,-0.64492 23.92491,-0.38686 8.25458,0.25805 18.70134,1.28983 26.89132,2.25718 8.18998,0.96735 14.1227,1.87016 19.08828,2.70853 4.96559,0.83837 8.96373,1.6122 11.80067,11.02797 2.83693,9.41577 4.51357,27.47189 5.6099,38.17686 1.09632,10.70497 1.61221,14.05825 1.61203,16.18594 -1.9e-4,2.12769 -0.51607,3.03049 -6.64227,7.22201 -6.1262,4.19151 -17.86268,11.67191 -30.05089,19.02353 -12.18822,7.35163 -24.8275,14.57407 -34.24266,19.60411 -9.41516,5.03004 -15.60583,7.86743 -19.41033,9.28625 -3.80449,1.41883 -5.22319,1.41883 -9.99524,-0.32211 -4.77204,-1.74093 -12.89729,-5.22318 -21.0228,-9.1569 -8.1255,-3.93371 -16.25076,-8.31877 -23.66689,-12.63942 -7.41613,-4.32066 -14.12268,-8.57674 -20.37803,-12.63947 -6.25534,-4.06273 -12.0591,-7.9319 -17.2826,-11.0274 -5.2235,-3.0955 -9.8665,-5.417 -12.05917,-6.57808 -2.19267,-1.16107 -1.93473,-1.16107 -1.09695,-5.41692 0.83779,-4.25585 2.25648,-12.76802 3.48178,-22.63466 1.2253,-9.86664 2.25708,-21.08723 2.90195,-28.0519 0.64488,-6.96467 0.90282,-9.67308 4.70812,-11.02777 z"/>
		<path id="neck" title="Neck" class="land" d="m 224.28778,149.9979 c 0.64426,-1.54779 3.09478,-4.38523 6.57742,-6.77143 3.48264,-2.3862 7.99667,-4.32078 13.92967,-6.38439 5.93299,-2.06361 13.28441,-4.25614 19.21728,-6.1263 5.93286,-1.87015 10.44689,-3.41782 13.41296,-8.38293 2.96607,-4.96511 4.38477,-13.34831 5.15869,-17.60488 0.77392,-4.25657 0.90288,-4.38555 6.25603,-3.28911 5.35314,1.09644 15.92886,3.41794 23.15143,4.64309 7.22256,1.22515 11.09173,1.35412 18.05631,0.12873 6.96457,-1.2254 17.02441,-3.80484 22.37712,-4.96528 5.35272,-1.16044 5.99758,-0.9025 6.96439,3.16061 0.96682,4.06311 2.25654,11.93042 4.90107,16.83121 2.64453,4.90079 6.64267,6.83537 11.86622,8.8344 5.22354,1.99903 11.67216,4.06259 16.7667,5.93282 5.09455,1.87023 8.83475,3.54687 11.73646,6.06223 2.90171,2.51536 4.96526,5.86863 5.02967,7.86706 0.0644,1.99844 -1.87018,2.6433 -6.7711,2.96583 -4.90092,0.32254 -12.76823,0.32254 -21.40962,0.19358 -8.64139,-0.12897 -18.05637,-0.38691 -24.24731,-0.25802 -6.19093,0.1289 -9.15729,0.64479 -18.95946,1.09627 -9.80216,0.45147 -26.43958,0.83839 -37.20894,0.4516 -10.76935,-0.38678 -15.67029,-1.54753 -21.60332,-1.93462 -5.93303,-0.38709 -12.89753,-1.7e-4 -20.50708,0.0644 -7.60955,0.0645 -15.86378,-0.19342 -21.47423,-0.32241 -5.61045,-0.12899 -8.57681,-0.12899 -10.64034,-0.25784 -2.06353,-0.12885 -3.22428,-0.38679 -2.58002,-1.93458 z"/>
		<path id="head" title="Head" class="land" d="m 312.89403,105.69498 c 6.96459,0.83827 11.09178,0.96724 18.12088,-1.9e-4 7.02909,-0.96743 16.95995,-3.03098 22.24746,-4.57848 5.28751,-1.54749 5.93237,-2.579266 7.73803,-6.44848 1.80566,-3.869215 4.77202,-10.575772 6.44871,-14.638388 1.67669,-4.062616 2.0636,-5.481312 2.25716,-12.445916 0.19355,-6.964604 0.19355,-19.474913 -0.0643,-27.084381 -0.25785,-7.609469 -0.77373,-10.317886 -1.74074,-12.574988 -0.967,-2.257101 -2.38569,-4.06271 -4.64268,-6.319884 -2.257,-2.257173 -5.35233,-4.965593 -9.544,-7.22293 -4.19167,-2.257336 -9.47953,-4.062946 -14.05824,-5.094917 -4.57872,-1.031971 -8.44789,-1.2899158 -14.31637,-1.2899644 -5.86847,-4.86e-5 -13.73578,0.2578959 -19.28181,0.6447756 -5.54602,0.3868797 -8.77033,0.9027694 -11.67255,1.9345608 -2.90223,1.031792 -5.48167,2.579457 -8.70615,4.836579 -3.22448,2.257122 -7.09365,5.223485 -9.41534,7.222742 -2.32169,1.999257 -3.09552,3.031033 -3.74041,4.966 -0.64489,1.934967 -1.16078,4.772356 -1.28967,12.511087 -0.12889,7.73873 0.12905,20.378011 0.64514,27.923151 0.51608,7.54514 1.28992,9.995614 3.16016,14.638782 1.87023,4.643167 4.8366,11.478696 6.90053,15.025031 2.06393,3.54633 3.22467,3.80428 8.70618,4.70708 5.48151,0.9028 15.28341,2.45047 22.248,3.28873 z"/>
		<path id="ears" title="Ears" class="land" d="m 369.83525,43.271663 c 0.45135,-4.192057 1.2252,-5.352831 2.3866,-5.8688 1.16141,-0.515968 2.70907,-0.386996 3.99728,0.812134 1.28821,1.19913 2.31739,3.467164 2.73498,6.067418 0.41759,2.600254 0.22413,5.532694 -0.17425,8.250558 -0.39839,2.717863 -1.00155,5.221036 -2.19303,6.940931 -1.19149,1.719896 -2.97174,2.65724 -4.31288,2.932806 -1.34114,0.275567 -2.24394,-0.111347 -2.63148,-3.915945 -0.38754,-3.804598 -0.25856,-11.027044 0.19278,-15.219102 z"/>
		<path id="ears" title="Ears" class="land" d="m 270.87573,42.066136 c -0.45135,-4.19206 -1.2252,-5.352829 -2.3866,-5.868798 -1.16141,-0.515968 -2.70907,-0.386996 -3.99728,0.812134 -1.28821,1.199129 -2.3174,3.467164 -2.73498,6.067418 -0.41759,2.600254 -0.22414,5.532694 0.17425,8.250558 0.39839,2.717864 1.00155,5.221037 2.19303,6.940933 1.19149,1.719895 2.97174,2.657239 4.31288,2.932805 1.34114,0.275566 2.24394,-0.111348 2.63148,-3.915946 0.38754,-3.804598 0.25856,-11.027044 -0.19278,-15.219104 z"/>

		<path id="legs" title="Legs" class="land" d="m 321.21232,418.26539 c 1.22576,0 3.67629,0 6.90037,-1.0964 3.22409,-1.09641 7.22223,-3.28894 12.63921,-6.44885 5.41698,-3.15992 12.25251,-7.28703 20.05559,-11.86569 7.80308,-4.57866 16.57319,-9.60858 24.50518,-14.44517 7.93198,-4.8366 15.02545,-9.47959 20.37795,-12.96194 5.35251,-3.48235 8.96373,-5.80385 11.67266,-6.31925 2.70892,-0.5154 4.51453,0.77432 6.25531,4.45035 1.74078,3.67604 3.41742,9.73774 4.51358,16.122 1.09617,6.38426 1.61206,13.09082 1.35403,25.02109 -0.25803,11.93028 -1.28981,29.08359 -2.38612,43.59336 -1.09631,14.50976 -2.25706,26.37521 -3.67584,36.56425 -1.41877,10.18903 -3.09541,18.7012 -5.22354,26.82661 -2.12814,8.1254 -4.70758,15.86374 -7.22262,22.8284 -2.51503,6.96466 -4.96551,13.15533 -6.51315,19.60433 -1.54765,6.449 -2.19251,13.15556 -2.45041,20.89419 -0.2579,7.73863 -0.12892,16.50875 -0.0644,23.40895 0.0645,6.90019 0.0645,11.93011 0.32247,18.12101 0.25799,6.19089 0.77388,13.54231 1.22529,21.02292 0.4514,7.48061 0.83832,15.08998 1.03176,20.89386 0.19343,5.80388 0.19343,9.80202 -0.45153,15.21892 -0.64496,5.4169 -1.93469,12.25243 -5.41709,23.27982 -3.48241,11.02738 -9.15719,26.24611 -13.3489,37.46699 -4.19171,11.22089 -6.90012,18.44333 -8.89925,23.73133 -1.99912,5.28799 -3.28884,8.64127 -5.159,13.54238 -1.87016,4.90111 -4.32063,11.34972 -5.93282,15.67042 -1.6122,4.32069 -2.38603,6.51323 -0.90223,9.86687 1.4838,3.35365 5.22399,7.86767 8.57737,11.86592 3.35339,3.99825 6.31975,7.4805 9.60871,10.89832 3.28895,3.41781 6.90017,6.77109 8.64076,8.96362 1.74059,2.19253 1.61161,3.22431 1.16082,3.67538 -0.4508,0.45107 -1.22464,0.3221 -2.41766,-0.29024 -1.19303,-0.61235 -2.80518,-1.70861 -3.80496,-2.579 -0.99978,-0.8704 -1.3867,-1.51525 -2.06379,-1.74162 -0.6771,-0.22637 -1.64439,-0.0329 -2.09611,0.29017 -0.45171,0.32308 -0.38723,0.77448 0.0323,1.54835 0.4195,0.77387 1.19333,1.87013 1.61218,2.64398 0.41885,0.77384 0.48333,1.22524 0.22553,1.57926 -0.25781,0.35403 -0.83818,0.61197 -1.41837,0.77324 -0.58018,0.16127 -1.16055,0.22576 -1.48319,0.17805 -0.32264,-0.0477 -0.38712,-0.20893 -0.75757,-0.43499 -0.37044,-0.22605 -1.04755,-0.51624 -1.61187,-0.8385 -0.56433,-0.32227 -1.01573,-0.67694 -1.37043,-0.96711 -0.35471,-0.29016 -0.61265,-0.51586 -0.83859,-0.82205 -0.22594,-0.30618 -0.4194,-0.6931 -0.59684,-1.1284 -0.17744,-0.43529 -0.33865,-0.91893 -0.93496,-1.08081 -0.59631,-0.16189 -1.62809,-6.7e-4 -2.19285,0.16076 -0.56476,0.16142 -0.66149,0.32265 -0.54835,0.88737 0.11314,0.56473 0.43557,1.53203 0.72587,2.27364 0.2903,0.74161 0.54824,1.25749 0.7254,1.75725 0.17715,0.49976 0.27388,0.98341 0.30595,1.3218 0.0321,0.33839 -1.7e-4,0.53186 -0.24155,0.67646 -0.24138,0.14461 -0.69279,0.24134 -1.20849,0.22543 -0.5157,-0.0159 -1.09608,-0.14489 -1.67645,-0.3543 -0.58037,-0.20942 -1.16075,-0.49961 -1.6767,-0.82191 -0.51596,-0.32231 -0.96735,-0.67699 -1.4672,-1.14445 -0.49985,-0.46746 -1.04799,-1.04784 -1.48351,-1.72487 -0.43553,-0.67703 -0.75796,-1.45087 -0.99974,-1.99902 -0.24179,-0.54815 -0.403,-0.87058 -1.4185,-1.03239 -1.01549,-0.16182 -2.88559,-0.16182 -3.7888,-2e-5 -0.9032,0.1618 -0.83872,0.48422 -0.66117,0.91954 0.17754,0.43532 0.46773,0.98345 0.75788,1.57997 0.29015,0.59652 0.58034,1.24138 0.75747,1.85396 0.17713,0.61259 0.24161,1.19296 0.17697,1.83763 -0.0646,0.64467 -0.2581,1.35402 -0.58029,1.83724 -0.32219,0.48323 -0.77359,0.74118 -1.25683,0.82198 -0.48325,0.0808 -0.99914,-0.0159 -1.57951,-0.19312 -0.58036,-0.17721 -1.22522,-0.43516 -1.85407,-0.85409 -0.62885,-0.41893 -1.24146,-0.9993 -1.72528,-1.57959 -0.48381,-0.5803 -0.83849,-1.16066 -1.08054,-1.72494 -0.24205,-0.56427 -0.37102,-1.11241 -0.50004,-1.77343 -0.12902,-0.66102 -0.25799,-1.43486 -0.38679,-1.96684 -0.1288,-0.53199 -0.25777,-0.82217 -1.61179,-1.01622 -1.35401,-0.19405 -3.93345,-0.29078 -5.22372,-0.0646 -1.29027,0.22619 -1.29027,0.77433 -1.30642,1.30632 -0.0161,0.53199 -0.0484,1.04789 -0.0645,1.66055 -0.0161,0.61267 -0.0161,1.32202 -0.16129,2.12793 -0.1452,0.80591 -0.43539,1.70872 -0.82223,2.41779 -0.38685,0.70908 -0.87049,1.22496 -1.45066,1.64402 -0.58017,0.41905 -1.25727,0.74148 -2.15991,0.99946 -0.90265,0.25799 -2.03116,0.45145 -2.94992,0.35511 -0.91876,-0.0963 -1.6281,-0.48326 -2.43425,-1.0313 -0.80615,-0.54804 -1.70895,-1.25739 -2.2897,-2.01496 -0.58075,-0.75757 -0.83869,-1.56364 -0.93564,-2.59558 -0.0969,-1.03194 -0.0325,-2.28942 0.12869,-3.32139 0.16115,-1.03197 0.41909,-1.83805 0.61262,-3.12767 0.19353,-1.28961 0.3225,-3.06298 0.22599,-4.46545 -0.0965,-1.40247 -0.41895,-2.43425 -0.69309,-3.49832 -0.27414,-1.06407 -0.49984,-2.16034 -0.66114,-3.38566 -0.16131,-1.22532 -0.25803,-2.57953 -0.24198,-4.3369 0.0161,-1.75736 0.14503,-3.91765 0.32234,-5.83621 0.17732,-1.91856 0.40302,-3.5952 0.58037,-5.03004 0.17735,-1.43485 0.30632,-2.62784 1.09626,-5.85237 0.78994,-3.22453 2.24089,-8.48015 3.74022,-13.17171 1.49934,-4.69156 3.04701,-8.81867 4.07884,-12.20417 1.03183,-3.3855 1.54772,-6.02943 1.64454,-11.67204 0.0968,-5.6426 -0.2256,-14.28375 -0.54803,-20.89374 -0.32242,-6.61 -0.64485,-11.1885 -0.74164,-15.92843 -0.0968,-4.73992 0.0322,-9.64087 -0.41885,-12.92964 -0.45105,-3.28878 -1.48283,-4.96542 -2.70818,-7.31922 -1.22536,-2.3538 -2.64405,-5.38465 -3.51484,-8.0287 -0.87078,-2.64405 -1.19321,-4.90106 -1.2256,-6.77137 -0.0324,-1.87031 0.22555,-3.35349 0.38683,-6.15864 0.16128,-2.80516 0.22577,-6.93227 0.67712,-11.31756 0.45136,-4.38529 1.28968,-9.02829 1.93457,-12.99427 0.6449,-3.96598 1.0963,-7.25477 1.77339,-10.25359 0.67708,-2.99881 1.57989,-5.70723 2.1281,-8.64127 0.54822,-2.93404 0.74168,-6.09386 4e-4,-9.28589 -0.74129,-3.19203 -2.41793,-6.41633 -3.93346,-9.70522 -1.51554,-3.28889 -2.86975,-6.64217 -3.80498,-10.02783 -0.93523,-3.38566 -1.45112,-6.80343 -1.67282,-9.93947 -0.22169,-3.13603 -0.14899,-5.99 0.16089,-8.69393 0.30988,-2.70394 0.85707,-5.25746 1.08515,-9.86294 0.22809,-4.60549 0.13689,-11.26288 -0.0455,-16.55243 -0.18237,-5.28956 -0.45596,-9.21104 -0.54721,-13.17827 -0.0912,-3.96724 -5e-5,-7.97991 0.0456,-14.91112 0.0456,-6.93121 0.0456,-16.78051 0.0456,-26.1285 0,-9.34798 0,-18.1941 -0.0456,-25.49007 -0.0456,-7.29596 -0.13679,-13.04138 -0.45593,-18.33093 -0.31915,-5.28955 -0.86634,-10.123 -1.45912,-14.72858 -0.59278,-4.60558 -1.23116,-8.98305 -1.73278,-13.04146 -0.50163,-4.0584 -0.86642,-7.79749 -1.9606,-11.67343 -1.09419,-3.87594 -2.91813,-7.88861 -4.60571,-7.79769 -1.68757,0.0909 -3.23792,4.28599 -4.14986,7.66053 -0.91194,3.37455 -1.18553,5.92807 -1.77835,9.98645 -0.59282,4.05837 -1.50479,9.6214 -2.23441,13.58854 -0.72961,3.96714 -1.2768,6.33827 -1.77832,15.59525 -0.50153,9.25697 -0.95752,25.39887 -0.82067,39.67168 0.13685,14.27281 0.86643,26.67562 1.13998,35.65873 0.27355,8.98311 0.0911,14.54614 0.0456,21.61416 -0.0456,7.06803 0.0456,15.64056 0.13682,22.52614 0.0912,6.88558 0.1824,12.08382 -7e-5,16.50692 -0.18246,4.42311 -0.63844,8.071 -1.23129,10.89804 -0.59285,2.82704 -1.32243,4.83337 -2.4168,6.83958 -1.09436,2.00621 -2.55352,4.01255 -3.41988,7.06813 -0.86635,3.05558 -1.13995,7.15945 -0.9574,10.85315 0.18255,3.69371 0.82093,6.9768 1.50496,10.07761 0.68404,3.10081 1.41361,6.01912 2.00633,9.48468 0.59271,3.46556 1.0487,7.47824 1.36786,11.30861 0.31916,3.83037 0.50156,7.47825 0.54711,10.8982 0.0456,3.41996 -0.0456,6.61186 -0.22809,9.02857 -0.18246,2.41671 -0.45605,4.05826 -1.68729,7.3413 -1.23124,3.28304 -3.41997,8.20768 -4.51426,12.12954 -1.09428,3.92185 -1.09428,6.84016 -1.1855,10.71615 -0.0912,3.87598 -0.27362,8.70943 -0.72964,15.09341 -0.45603,6.38397 -1.1856,14.31813 -1.45911,19.28859 -0.2735,4.97045 -0.0911,6.97678 0.0913,8.5728 0.18243,1.59602 0.36483,2.78158 2.50817,9.25686 2.14334,6.47528 6.24721,18.23972 8.34462,24.80599 2.0974,6.56627 2.18859,7.93422 2.18854,9.89498 -5e-5,1.96075 -0.0913,4.51427 -0.14894,6.72067 -0.0577,2.20641 -0.0819,4.06553 -0.19077,5.65605 -0.10889,1.59052 -0.30234,2.91248 -0.51197,3.84739 -0.20963,0.93491 -0.43533,1.48303 -0.61266,1.86987 -0.17733,0.38683 -0.30631,0.61253 -0.43528,0.95127 -0.12898,0.33873 -0.25795,0.79013 -0.43529,1.45115 -0.17734,0.66102 -0.40304,1.53159 -0.54809,2.28942 -0.14506,0.75783 -0.20954,1.40269 -0.19333,2.2895 0.0162,0.88681 0.11294,2.01532 0.12898,2.98256 0.016,0.96724 -0.0485,1.7733 -0.17747,2.56318 -0.12903,0.78988 -0.32249,1.56371 -0.45144,2.19254 -0.12894,0.62883 -0.19343,1.11247 -0.45132,1.57959 -0.2579,0.46711 -0.7093,0.91851 -1.2571,1.22474 -0.54779,0.30623 -1.19265,0.46745 -1.99861,0.54814 -0.80596,0.0807 -1.77325,0.0807 -2.67601,2e-4 -0.90275,-0.0805 -1.74107,-0.24171 -2.37003,-0.6443 -0.62896,-0.40258 -1.04811,-1.04744 -1.30637,-1.72459 -0.25825,-0.67714 -0.35498,-1.38649 -0.35509,-2.28943 -1.2e-4,-0.90294 0.0966,-1.99921 0.19334,-3.07938 0.0967,-1.08018 0.19346,-2.1442 0.27404,-2.83751 0.0806,-0.69331 0.14506,-1.01574 -1.38603,-1.01617 -1.53108,-4.3e-4 -4.65866,0.322 -6.38423,0.74136 -1.72557,0.41935 -2.048,0.93524 -2.16068,1.48382 -0.11267,0.54858 -0.0159,1.12896 4e-5,1.74148 0.016,0.61251 -0.0485,1.25737 -0.2259,1.8859 -0.1774,0.62853 -0.46759,1.24115 -0.80613,1.83756 -0.33853,0.59641 -0.72545,1.17679 -1.2088,1.59574 -0.48336,0.41896 -1.06374,0.6769 -1.69215,0.7416 -0.62841,0.0647 -1.30552,-0.0643 -1.8699,-0.3863 -0.56438,-0.32202 -1.01578,-0.83791 -1.25805,-1.54729 -0.24227,-0.70938 -0.2745,-1.6122 -0.24231,-2.53122 0.0322,-0.91903 0.12891,-1.85407 0.20951,-2.56346 0.0806,-0.70939 0.14508,-1.19303 -0.56375,-1.41918 -0.70883,-0.22615 -2.19201,-0.19391 -3.01482,-0.0164 -0.82281,0.17755 -0.98402,0.49998 -1.19359,0.85458 -0.20956,0.3546 -0.46749,0.74151 -0.87052,1.27348 -0.40302,0.53198 -0.95115,1.20908 -1.5637,1.83774 -0.61256,0.62867 -1.28966,1.20904 -1.86991,1.62815 -0.58025,0.41911 -1.0639,0.67706 -1.61181,0.85443 -0.54792,0.17737 -1.16055,0.2741 -1.64407,0.17788 -0.48352,-0.0962 -0.8382,-0.38641 -1.08045,-0.8377 -0.24225,-0.45128 -0.37122,-1.0639 -0.35533,-1.56401 0.0159,-0.50011 0.17712,-0.88703 0.51574,-1.40312 0.33861,-0.5161 0.8545,-1.16096 1.45107,-1.82202 0.59656,-0.66107 1.27367,-1.33817 0.77439,-1.70896 -0.49927,-0.37078 -2.17591,-0.43526 -3.1922,-0.16105 -1.01629,0.27422 -1.37097,0.88684 -1.77398,1.48326 -0.40302,0.59643 -0.85442,1.17681 -1.43467,1.72482 -0.58025,0.54801 -1.28959,1.0639 -2.06325,1.46691 -0.77366,0.40302 -1.61198,0.6932 -2.19213,0.69378 -0.58016,5.7e-4 -0.90259,-0.28962 -1.11261,-0.74094 -0.21002,-0.45133 -0.30675,-1.06395 -0.22631,-1.56418 0.0804,-0.50023 0.33839,-0.88715 0.8866,-1.54824 0.5482,-0.66109 1.38652,-1.59614 2.01544,-2.19277 0.62892,-0.59662 1.04808,-0.85457 0.12944,-0.90288 -0.91865,-0.0483 -3.17567,0.1129 -4.54659,0.64515 -1.37092,0.53224 -1.85456,1.43505 -2.51531,2.12802 -0.66075,0.69298 -1.49907,1.17662 -2.27272,1.49907 -0.77365,0.32244 -1.48299,0.48366 -2.04706,0.41965 -0.56406,-0.064 -0.98321,-0.3542 -1.16119,-0.70887 -0.17798,-0.35467 -0.11349,-0.77382 0.28955,-1.51575 0.40305,-0.74193 1.14464,-1.80595 1.8058,-2.54773 0.66117,-0.74177 1.24155,-1.16094 2.49897,-2.38614 1.25742,-1.2252 3.192,-3.25651 4.85254,-5.09439 1.66053,-1.83788 3.04698,-3.48227 4.51411,-5.12674 1.46713,-1.64448 3.0148,-3.28888 4.49806,-4.75602 1.48327,-1.46714 2.90197,-2.75686 4.17559,-3.94987 1.27362,-1.19301 2.40213,-2.28928 3.64346,-3.74018 1.24132,-1.4509 2.59553,-3.25651 3.09544,-5.36801 0.49992,-2.11151 0.14525,-4.52974 -0.46715,-6.54495 -0.6124,-2.01522 -1.48296,-3.62737 -3.36936,-8.51237 -1.88639,-4.885 -4.78827,-13.04249 -7.49676,-20.53922 -2.70849,-7.49673 -5.22345,-14.33226 -8.46398,-23.10265 -3.24053,-8.7704 -7.20643,-19.47509 -10.54369,-28.61626 -3.33726,-9.14117 -6.04567,-16.7183 -7.59346,-21.40979 -1.54779,-4.6915 -1.93471,-6.49711 -2.19274,-8.14159 -0.25803,-1.64449 -0.387,-3.12767 -0.51601,-5.73947 -0.129,-2.61181 -0.25797,-6.352 -0.24191,-8.96383 0.0161,-2.61183 0.17727,-4.09501 0.62871,-13.92949 0.45145,-9.83447 1.19304,-28.01956 1.5961,-39.46611 0.40306,-11.44655 0.46755,-16.15403 0.56428,-21.11962 0.0967,-4.9656 0.22569,-10.18898 -0.0644,-16.02509 -0.29012,-5.83611 -0.99947,-12.28472 -1.90218,-17.28248 -0.90271,-4.99777 -1.99897,-8.5445 -3.44989,-12.44603 -1.45091,-3.90152 -3.25652,-8.1576 -4.96552,-12.833 -1.709,-4.67539 -3.32116,-9.7698 -4.83668,-15.34804 -1.51552,-5.57823 -2.93421,-11.63993 -4.09505,-17.70183 -1.16083,-6.0619 -2.06364,-12.1236 -2.86976,-18.121 -0.80611,-5.9974 -1.51546,-11.93012 -1.9669,-16.34755 -0.45145,-4.41744 -0.64491,-7.31932 -1.32204,-18.02441 -0.67713,-10.7051 -1.83788,-29.21262 -2.35384,-39.56294 -0.51596,-10.35031 -0.38699,-12.54283 -0.0646,-15.96074 0.32242,-3.41791 0.83831,-8.06091 1.5154,-12.09149 0.67709,-4.03059 1.51541,-7.44835 2.25701,-10.22137 0.7416,-2.77301 1.38646,-4.90106 2.19259,-6.67469 0.80612,-1.77362 1.77342,-3.19232 3.80548,-3.35342 2.03205,-0.16111 5.12739,0.93516 9.22239,2.80542 4.09499,1.87026 9.18941,4.51419 14.44511,8.22242 5.25571,3.70823 10.67255,8.4802 14.89658,11.41414 4.22402,2.93394 7.25488,4.0302 10.76946,5.86828 3.51458,1.83807 7.51272,4.41751 10.67265,6.15854 3.15993,1.74103 5.48143,2.64384 8.38337,4.22395 2.90195,1.5801 6.3842,3.83711 10.41473,5.96511 4.03054,2.12799 8.60905,4.12706 11.96241,5.44897 3.35336,1.32192 5.4814,1.96679 6.54485,2.28904 1.06344,0.32226 1.06339,0.32229 2.28915,0.32229 z"/>


  </g>
</svg>
