<svg width="390" height="417" viewBox="0 0 390 417" fill="none" xmlns="http://www.w3.org/2000/svg">
<circle cx="195" cy="176" r="240.5" stroke="#222D90" stroke-opacity="0.01"/>
<circle cx="195" cy="176" r="210.5" stroke="#222D90" stroke-opacity="0.02"/>
<circle cx="195" cy="176" r="180.5" stroke="#222D90" stroke-opacity="0.03"/>
<circle cx="195" cy="176" r="150.5" stroke="#222D90" stroke-opacity="0.05"/>
<circle cx="195" cy="176" r="120.5" stroke="#222D90" stroke-opacity="0.1"/>
<circle cx="195" cy="176" r="90.5" stroke="#222D90" stroke-opacity="0.15"/>
<path fill-rule="evenodd" clip-rule="evenodd" d="M191 119.141C181.717 119.793 172.713 122.712 164.788 127.666C155.728 133.329 148.442 141.424 143.761 151.028C139.081 160.632 137.193 171.358 138.315 181.983C139.296 191.278 142.545 200.168 147.75 207.882L195 176V119.141H191ZM191 115.131C180.966 115.791 171.229 118.922 162.667 124.274C152.972 130.334 145.175 138.997 140.166 149.275C135.157 159.553 133.137 171.032 134.337 182.403C135.397 192.444 138.93 202.043 144.592 210.352C145.339 211.448 146.123 212.521 146.943 213.57C146.946 213.575 146.95 213.579 146.953 213.583L150 211L147.75 207.882L195 176V119.141V115C193.663 115 192.329 115.044 191 115.131Z" fill="#222D90" fill-opacity="0.6"/>
<circle cx="195" cy="176" r="59" stroke="#222D90" stroke-opacity="0.2" stroke-width="4"/>
</svg>
