<svg width="68" height="68" viewBox="0 0 68 68" fill="none" xmlns="http://www.w3.org/2000/svg">
<path fill-rule="evenodd" clip-rule="evenodd" d="M10.8937 10.3889C6.44205 10.3889 2.83331 13.9976 2.83331 18.4492V18.9866L6.05745 21.7558L29.0354 39.7205C31.9523 42.0009 36.0476 42.0009 38.9645 39.7205L61.9425 21.7558V50.1533C61.9425 52.8242 59.7773 54.9895 57.1063 54.9895H10.8937C8.22269 54.9895 6.05745 52.8242 6.05745 50.1533L6.11398 31.8831H6.11119C6.11119 30.9928 5.37741 30.2711 4.47225 30.2711C3.56709 30.2711 2.83331 30.9928 2.83331 31.8831V50.1533C2.83331 54.6049 6.44205 58.2136 10.8937 58.2136H57.1063C61.5579 58.2136 65.1666 54.6049 65.1666 50.1533V18.4492C65.1666 13.9976 61.5579 10.3889 57.1063 10.3889H10.8937ZM31.0213 37.1805L6.11398 17.7075C6.05745 15.2251 8.47492 13.613 10.8937 13.613H57.1063C59.525 13.613 61.5291 15.3886 61.886 17.7075L36.9787 37.1805C35.2286 38.5487 32.7714 38.5487 31.0213 37.1805Z" fill="#131F44" fill-opacity="0.8"/>
</svg>
