<svg width="68" height="68" viewBox="0 0 68 68" fill="none" xmlns="http://www.w3.org/2000/svg">
<path d="M34 6C18.5517 6 6 18.5517 6 34C6 49.4483 18.5517 62 34 62C49.4483 62 62 49.4483 62 34C62 18.5517 49.4483 6 34 6ZM34 8.89655C47.8552 8.89655 59.1034 20.1448 59.1034 34C59.1034 47.8552 47.8552 59.1034 34 59.1034C20.1448 59.1034 8.89655 47.8552 8.89655 34C8.89655 20.1448 20.1448 8.89655 34 8.89655ZM44.1558 26.7341C43.7877 26.7462 43.414 26.9036 43.1243 27.1933L33.0345 37.6688L27.7722 32.0209C27.2412 31.4416 26.3243 31.3927 25.745 31.9238C25.1657 32.4548 25.1169 33.3726 25.6479 33.9519L31.9728 40.7586C32.2624 41.0483 32.6 41.2414 33.0345 41.2414C33.4207 41.2414 33.8065 41.0964 34.0962 40.8067L45.1996 29.1724C45.7307 28.5931 45.7308 27.6762 45.1515 27.1452C44.886 26.8555 44.5239 26.722 44.1558 26.7341Z" fill="#131F44" fill-opacity="0.8"/>
</svg>
