<svg width="20" height="20" viewBox="0 0 20 20" fill="none" xmlns="http://www.w3.org/2000/svg">
<g id="20/google">
<path id="Vector" d="M18.1712 8.36792H17.5V8.33333H9.99999V11.6667H14.7096C14.0225 13.6071 12.1762 15 9.99999 15C7.23874 15 4.99999 12.7612 4.99999 10C4.99999 7.23875 7.23874 5 9.99999 5C11.2746 5 12.4342 5.48083 13.3171 6.26625L15.6742 3.90917C14.1858 2.52208 12.195 1.66667 9.99999 1.66667C5.39791 1.66667 1.66666 5.39792 1.66666 10C1.66666 14.6021 5.39791 18.3333 9.99999 18.3333C14.6021 18.3333 18.3333 14.6021 18.3333 10C18.3333 9.44125 18.2758 8.89583 18.1712 8.36792Z" fill="#FFC107"/>
<path id="Vector_2" d="M2.6275 6.12125L5.36542 8.12917C6.10625 6.295 7.90042 5 10 5C11.2746 5 12.4342 5.48083 13.3171 6.26625L15.6742 3.90917C14.1858 2.52208 12.195 1.66667 10 1.66667C6.79917 1.66667 4.02334 3.47375 2.6275 6.12125Z" fill="#FF3D00"/>
<path id="Vector_3" d="M9.99999 18.3333C12.1525 18.3333 14.1083 17.5096 15.5871 16.17L13.0079 13.9875C12.1712 14.6212 11.1312 15 9.99999 15C7.83249 15 5.99207 13.6179 5.29874 11.6892L2.58124 13.7829C3.9604 16.4817 6.76124 18.3333 9.99999 18.3333Z" fill="#4CAF50"/>
<path id="Vector_4" d="M18.1712 8.36792H17.5V8.33333H10V11.6667H14.7096C14.3796 12.5987 13.78 13.4025 13.0067 13.9879L13.0079 13.9871L15.5871 16.1696C15.4046 16.3354 18.3333 14.1667 18.3333 10C18.3333 9.44125 18.2758 8.89583 18.1712 8.36792Z" fill="#1976D2"/>
</g>
</svg>
