<svg width="20" height="20" viewBox="0 0 20 20" fill="none" xmlns="http://www.w3.org/2000/svg">
<g id="20/logout">
<g id="Vector">
<path d="M4.25364 4.16667H9.25364C9.71198 4.16667 10.087 3.79167 10.087 3.33333C10.087 2.875 9.71198 2.5 9.25364 2.5H4.25364C3.33698 2.5 2.58698 3.25 2.58698 4.16667V15.8333C2.58698 16.75 3.33698 17.5 4.25364 17.5H9.25364C9.71198 17.5 10.087 17.125 10.087 16.6667C10.087 16.2083 9.71198 15.8333 9.25364 15.8333H4.25364V4.16667Z" fill="#131F44" fill-opacity="0.8"/>
<path d="M17.2953 9.70833L14.9703 7.38333C14.7036 7.11667 14.2536 7.3 14.2536 7.675V9.16667H8.42031C7.96198 9.16667 7.58698 9.54167 7.58698 10C7.58698 10.4583 7.96198 10.8333 8.42031 10.8333H14.2536V12.325C14.2536 12.7 14.7036 12.8833 14.962 12.6167L17.287 10.2917C17.4536 10.1333 17.4536 9.86667 17.2953 9.70833Z" fill="#131F44" fill-opacity="0.8"/>
</g>
</g>
</svg>
