<svg width="20" height="20" viewBox="0 0 20 20" fill="none" xmlns="http://www.w3.org/2000/svg">
<g id="20/settings">
<path id="Vector" d="M16.1958 10.825L16.1875 10.8417C16.2208 10.5667 16.2542 10.2833 16.2542 10C16.2542 9.71666 16.2292 9.45 16.1958 9.175L16.2042 9.19166L18.2375 7.59166L16.2125 4.075L13.8208 5.04166L13.8292 5.05C13.3958 4.71666 12.9208 4.43333 12.4042 4.21666H12.4125L12.0292 1.66666H7.97085L7.60418 4.225H7.61251C7.09585 4.44166 6.62085 4.725 6.18751 5.05833L6.19585 5.05L3.79585 4.075L1.76251 7.59166L3.79585 9.19166L3.80418 9.175C3.77085 9.45 3.74585 9.71666 3.74585 10C3.74585 10.2833 3.77085 10.5667 3.81251 10.8417L3.80418 10.825L2.05418 12.2L1.77918 12.4167L3.80418 15.9167L6.20418 14.9583L6.18751 14.925C6.62918 15.2667 7.10418 15.55 7.62918 15.7667H7.60418L7.97918 18.3333H12.0208C12.0208 18.3333 12.0458 18.1833 12.0708 17.9833L12.3875 15.775H12.3792C12.8958 15.5583 13.3792 15.275 13.8208 14.9333L13.8042 14.9667L16.2042 15.925L18.2292 12.425C18.2292 12.425 18.1125 12.325 17.9542 12.2083L16.1958 10.825ZM9.99585 12.9167C8.38751 12.9167 7.07918 11.6083 7.07918 10C7.07918 8.39166 8.38751 7.08333 9.99585 7.08333C11.6042 7.08333 12.9125 8.39166 12.9125 10C12.9125 11.6083 11.6042 12.9167 9.99585 12.9167Z" fill="#131F44" fill-opacity="0.8"/>
</g>
</svg>
