<svg width="20" height="20" viewBox="0 0 20 20" fill="none" xmlns="http://www.w3.org/2000/svg">
<g id="20/visibility_off">
<path id="Vector" d="M10 4.97917C13.1583 4.97917 15.975 6.75417 17.35 9.5625C16.8583 10.5792 16.1667 11.4542 15.3417 12.1625L16.5167 13.3375C17.675 12.3125 18.5917 11.0292 19.1667 9.5625C17.725 5.90417 14.1667 3.3125 10 3.3125C8.94168 3.3125 7.92501 3.47917 6.96668 3.7875L8.34168 5.1625C8.88334 5.05417 9.43334 4.97917 10 4.97917ZM9.10834 5.92917L10.8333 7.65417C11.3083 7.8625 11.6917 8.24583 11.9 8.72083L13.625 10.4458C13.6917 10.1625 13.7417 9.8625 13.7417 9.55417C13.75 7.4875 12.0667 5.8125 10 5.8125C9.69168 5.8125 9.40001 5.85417 9.10834 5.92917ZM1.67501 3.20417L3.90834 5.4375C2.55001 6.50417 1.47501 7.92083 0.833344 9.5625C2.27501 13.2208 5.83334 15.8125 10 15.8125C11.2667 15.8125 12.4833 15.5708 13.6 15.1292L16.45 17.9792L17.625 16.8042L2.85001 2.02083L1.67501 3.20417ZM7.92501 9.45417L10.1 11.6292C10.0667 11.6375 10.0333 11.6458 10 11.6458C8.85001 11.6458 7.91668 10.7125 7.91668 9.5625C7.91668 9.52083 7.92501 9.49583 7.92501 9.45417ZM5.09168 6.62083L6.55001 8.07917C6.35834 8.5375 6.25001 9.0375 6.25001 9.5625C6.25001 11.6292 7.93334 13.3125 10 13.3125C10.525 13.3125 11.025 13.2042 11.475 13.0125L12.2917 13.8292C11.5583 14.0292 10.7917 14.1458 10 14.1458C6.84168 14.1458 4.02501 12.3708 2.65001 9.5625C3.23334 8.37083 4.08334 7.3875 5.09168 6.62083Z" fill="#131F44" fill-opacity="0.8"/>
</g>
</svg>
